<?xml version="1.0" encoding="UTF-8" standalone="no"?>
<svg
   width="50%"
   height="50%"
   viewBox="0 0 512 512"
   version="1.1"
   xml:space="preserve"
   style="fill-rule:evenodd;clip-rule:evenodd;stroke-linejoin:round;stroke-miterlimit:2;"
   id="svg9550"
   xmlns="http://www.w3.org/2000/svg"
   xmlns:svg="http://www.w3.org/2000/svg"><defs
   id="defs11" />
    <g
   id="g917"><rect
     x="0"
     y="0"
     width="512.00061"
     height="511.99991"
     style="fill:none;stroke-width:0.355556"
     id="rect9527" /><path
     d="m 222.81039,309.80767 c 0,-4.36228 -3.4476,-7.30006 -7.7064,-6.54923 l -50.90277,8.97424 c -4.2588,0.75083 -7.70639,4.90425 -7.70639,9.26653 v 96.25898 c 0,4.37224 3.44759,7.31002 7.70639,6.55919 l 50.90277,-8.97424 c 4.2588,-0.75083 7.7064,-4.90425 7.7064,-9.27649 z"
     style="fill:#ffffff;stroke-width:1.00494"
     id="path9533" /><path
     d="m 355.40539,94.267337 c 0,-4.36228 -3.4476,-7.30006 -7.7064,-6.549228 l -50.90277,8.97424 c -4.2588,0.750833 -7.70639,4.904251 -7.70639,9.266531 v 96.25898 c 0,4.37224 3.44759,7.31002 7.70639,6.55919 l 50.90277,-8.97424 c 4.2588,-0.75083 7.7064,-4.90425 7.7064,-9.27649 z"
     style="fill:#ff5d51;fill-opacity:1;stroke-width:1.00494"
     id="path9537" /><path
     d="m 231.07865,116.735 c -1.96602,-4.33009 -7.25087,-7.18298 -11.81386,-6.37851 l -54.53863,9.61525 c -4.56299,0.80446 -6.66584,4.95982 -4.69982,9.28991 l 120.76813,265.98771 c 1.96602,4.33009 7.26223,7.208 11.82522,6.40354 l 54.53862,-9.61525 c 4.563,-0.80447 6.65448,-4.98485 4.68846,-9.31494 z"
     style="fill:#ffffff;stroke-width:1.71375"
     id="path9541" /></g>
</svg>
