<?xml version="1.0" encoding="UTF-8" standalone="no"?><!DOCTYPE svg PUBLIC "-//W3C//DTD SVG 1.1//EN" "http://www.w3.org/Graphics/SVG/1.1/DTD/svg11.dtd"><svg width="100%" height="100%" viewBox="0 0 562 952" version="1.1" xmlns="http://www.w3.org/2000/svg" xmlns:xlink="http://www.w3.org/1999/xlink" xml:space="preserve" ><g><path d="M187.296,627.61c-0,-12.338 -9.715,-20.641 -21.68,-18.532l-143.936,25.376c-11.965,2.11 -21.68,13.839 -21.68,26.176l0,271.855c0,12.337 9.715,20.641 21.68,18.531l143.936,-25.376c11.965,-2.109 21.68,-13.838 21.68,-26.176l-0,-271.854Z" style="fill:#fff;"/><path d="M561.888,18.859c-0,-12.337 -9.715,-20.641 -21.681,-18.532l-143.935,25.377c-11.966,2.109 -21.68,13.838 -21.68,26.176l-0,271.854c-0,12.338 9.714,20.641 21.68,18.532l143.935,-25.376c11.966,-2.11 21.681,-13.839 21.681,-26.176l-0,-271.855Z" style="fill:url(#_Linear1logo);"/><path d="M210.743,82.363c-5.557,-12.239 -20.477,-20.34 -33.297,-18.08l-154.217,27.189c-12.821,2.26 -18.717,14.031 -13.16,26.27l341.076,751.207c5.557,12.239 20.477,20.341 33.297,18.08l154.217,-27.188c12.82,-2.26 18.717,-14.032 13.16,-26.271l-341.076,-751.207Z" style="fill:#fff;"/></g><defs><linearGradient id="_Linear1logo" x1="0" y1="0" x2="1" y2="0" gradientUnits="userSpaceOnUse" gradientTransform="matrix(-187.296,304.875,-304.875,-187.296,561.888,18.8592)"><stop offset="0" style="stop-color:#ff5d51;stop-opacity:1"/><stop offset="1" style="stop-color:#1200da;stop-opacity:1"/></linearGradient></defs></svg>
