<?xml version="1.0" encoding="UTF-8" standalone="no"?><!DOCTYPE svg PUBLIC "-//W3C//DTD SVG 1.1//EN" "http://www.w3.org/Graphics/SVG/1.1/DTD/svg11.dtd"><svg width="100%" height="100%" viewBox="0 0 2496 2496" version="1.1" xmlns="http://www.w3.org/2000/svg" xml:space="preserve" style="fill-rule:evenodd;clip-rule:evenodd;stroke-linejoin:round;stroke-miterlimit:2;"><g><path d="M425.704,1248l1.317,482.757l410.197,241.379l-0,282.632l-650.259,-381.378l-0,-766.56l238.745,141.17Zm-0,-482.757l-0,281.316l-238.892,-141.316l0,-281.316l238.892,-141.316l240.062,141.316l-240.062,141.316Zm582.819,-141.316l238.892,-141.316l240.062,141.316l-240.062,141.316l-238.892,-141.316Z" style="fill:#fff;fill-rule:nonzero;"/><path d="M598.326,1630.69l0,-282.633l238.892,141.317l-0,281.315l-238.892,-139.999Zm410.197,442.673l238.892,141.316l240.062,-141.316l-0,281.316l-240.062,141.316l-238.892,-141.316l0,-281.316Zm821.565,-1449.44l238.891,-141.316l240.062,141.316l0,281.316l-240.062,141.316l0,-281.316l-238.891,-141.316Zm238.891,1106.83l1.317,-482.757l238.892,-141.316l-0,766.559l-650.259,381.378l-0,-282.632l410.05,-241.232Z" style="fill:#fff;fill-rule:nonzero;"/><path d="M1897.67,1630.69l-238.892,139.999l0,-281.315l238.892,-141.317l-0,282.633Z" style="fill:#fff;fill-rule:nonzero;"/><path d="M1897.67,865.305l1.317,282.633l-411.368,241.378l0,483.927l-238.892,140l-238.891,-140l-0,-483.927l-411.368,-241.378l0,-282.633l239.916,-141.316l408.881,242.549l411.367,-242.549l240.062,141.316l-1.024,0Zm-1299.35,-482.61l649.089,-382.695l650.259,382.695l-238.892,141.316l-411.367,-242.549l-410.197,242.549l-238.892,-141.316Z" style="fill:#fff;fill-rule:nonzero;"/></g></svg>